<?xml version="1.0" encoding="utf-8"?>
<!-- Generator: Adobe Illustrator 18.1.1, SVG Export Plug-In . SVG Version: 6.00 Build 0)  -->
<svg version="1.1" id="Layer_1" xmlns="http://www.w3.org/2000/svg" xmlns:xlink="http://www.w3.org/1999/xlink" x="0px" y="0px"
	 width="160px" height="160px" viewBox="0 0 160 160" enable-background="new 0 0 160 160" xml:space="preserve">
<rect fill="#AD2424" width="160" height="160"/>
<g>
	<path fill="#FFFFFF" d="M21.9,144c-2.3,0-4.3-0.3-5.9-0.9v-7.2c2,0.5,3.8,0.8,5.2,0.8c4.7,0,7-3,7-8.9V76.8h8.6v50.6
		c0,5.4-1.3,9.5-3.8,12.3C30.5,142.6,26.8,144,21.9,144z"/>
</g>
<g>
	<path fill="#FFFFFF" d="M79.2,92.7c0,5.5-1.8,9.7-5.4,12.6c-3.6,2.9-8.7,4.4-15.3,4.4H53v19.7h-8.6V76.8h15.1
		c6.6,0,11.5,1.3,14.8,4C77.5,83.5,79.2,87.4,79.2,92.7z M53,102.4h4.6c4.4,0,7.6-0.8,9.7-2.3c2.1-1.5,3.1-3.9,3.1-7.2
		c0-3-0.9-5.3-2.8-6.8c-1.8-1.5-4.7-2.2-8.6-2.2h-6V102.4z"/>
</g>
</svg>
